<svg width="1458" height="980" viewBox="0 0 1458 980" fill="none" xmlns="http://www.w3.org/2000/svg">
<g clip-path="url(#clip0_3968_18045)">
<path d="M-150 69.5L-92.5331 0L70 0.342391L11 70L-150 69.5Z" stroke="#161A1E"/>
<path d="M12 69.5L69.4669 0L232 0.342391L173 70L12 69.5Z" stroke="#161A1E"/>
<path d="M174 69.5L231.467 0L394 0.342391L335 70L174 69.5Z" stroke="#161A1E"/>
<path d="M336 69.5L393.467 0L556 0.342391L497 70L336 69.5Z" stroke="#161A1E"/>
<path d="M498 69.5L555.467 0L718 0.342391L659 70L498 69.5Z" stroke="#161A1E"/>
<path d="M660 69.5L717.467 0L880 0.342391L821 70L660 69.5Z" stroke="#161A1E"/>
<path d="M822 69.5L879.467 0L1042 0.342391L983 70L822 69.5Z" stroke="#161A1E"/>
<path d="M984 69.5L1041.47 0L1204 0.342391L1145 70L984 69.5Z" stroke="#161A1E"/>
<path d="M1146 69.5L1203.47 0L1366 0.342391L1307 70L1146 69.5Z" stroke="#161A1E"/>
<path d="M1308 69.5L1365.47 0L1528 0.342391L1469 70L1308 69.5Z" stroke="#161A1E"/>
<path d="M-208 139.5L-150.533 70L12 70.3424L-47 140L-208 139.5Z" stroke="#161A1E"/>
<path d="M-46 139.5L11.4669 70L174 70.3424L115 140L-46 139.5Z" stroke="#161A1E"/>
<path d="M116 139.5L173.467 70L336 70.3424L277 140L116 139.5Z" stroke="#161A1E"/>
<path d="M278 139.5L335.467 70L498 70.3424L439 140L278 139.5Z" stroke="#161A1E"/>
<path d="M440 139.5L497.467 70L660 70.3424L601 140L440 139.5Z" stroke="#161A1E"/>
<path d="M602 139.5L659.467 70L822 70.3424L763 140L602 139.5Z" stroke="#161A1E"/>
<path d="M764 139.5L821.467 70L984 70.3424L925 140L764 139.5Z" stroke="#161A1E"/>
<path d="M926 139.5L983.467 70L1146 70.3424L1087 140L926 139.5Z" stroke="#161A1E"/>
<path d="M1088 139.5L1145.47 70L1308 70.3424L1249 140L1088 139.5Z" stroke="#161A1E"/>
<path d="M1250 139.5L1307.47 70L1470 70.3424L1411 140L1250 139.5Z" stroke="#161A1E"/>
<path d="M1412 139.5L1469.47 70L1632 70.3424L1573 140L1412 139.5Z" stroke="#161A1E"/>
<path d="M-104 209.5L-46.5331 140L116 140.342L57 210L-104 209.5Z" stroke="#161A1E"/>
<path d="M58 209.5L115.467 140L278 140.342L219 210L58 209.5Z" stroke="#161A1E"/>
<path d="M220 209.5L277.467 140L440 140.342L381 210L220 209.5Z" stroke="#161A1E"/>
<path d="M382 209.5L439.467 140L602 140.342L543 210L382 209.5Z" stroke="#161A1E"/>
<path d="M544 209.5L601.467 140L764 140.342L705 210L544 209.5Z" stroke="#161A1E"/>
<path d="M706 209.5L763.467 140L926 140.342L867 210L706 209.5Z" stroke="#161A1E"/>
<path d="M868 209.5L925.467 140L1088 140.342L1029 210L868 209.5Z" stroke="#161A1E"/>
<path d="M1030 209.5L1087.47 140L1250 140.342L1191 210L1030 209.5Z" stroke="#161A1E"/>
<path d="M1192 209.5L1249.47 140L1412 140.342L1353 210L1192 209.5Z" stroke="#161A1E"/>
<path d="M1354 209.5L1411.47 140L1574 140.342L1515 210L1354 209.5Z" stroke="#161A1E"/>
<path d="M-162 279.5L-104.533 210L58 210.342L-1 280L-162 279.5Z" stroke="#161A1E"/>
<path d="M0 279.5L57.4669 210L220 210.342L161 280L0 279.5Z" stroke="#161A1E"/>
<path d="M162 279.5L219.467 210L382 210.342L323 280L162 279.5Z" stroke="#161A1E"/>
<path d="M324 279.5L381.467 210L544 210.342L485 280L324 279.5Z" stroke="#161A1E"/>
<path d="M486 279.5L543.467 210L706 210.342L647 280L486 279.5Z" stroke="#161A1E"/>
<path d="M648 279.5L705.467 210L868 210.342L809 280L648 279.5Z" stroke="#161A1E"/>
<path d="M810 279.5L867.467 210L1030 210.342L971 280L810 279.5Z" stroke="#161A1E"/>
<path d="M972 279.5L1029.47 210L1192 210.342L1133 280L972 279.5Z" stroke="#161A1E"/>
<path d="M1134 279.5L1191.47 210L1354 210.342L1295 280L1134 279.5Z" stroke="#161A1E"/>
<path d="M1296 279.5L1353.47 210L1516 210.342L1457 280L1296 279.5Z" stroke="#161A1E"/>
<path d="M-220 349.5L-162.533 280L0 280.342L-59 350L-220 349.5Z" stroke="#161A1E"/>
<path d="M-58 349.5L-0.533119 280L162 280.342L103 350L-58 349.5Z" stroke="#161A1E"/>
<path d="M104 349.5L161.467 280L324 280.342L265 350L104 349.5Z" stroke="#161A1E"/>
<path d="M266 349.5L323.467 280L486 280.342L427 350L266 349.5Z" stroke="#161A1E"/>
<path d="M428 349.5L485.467 280L648 280.342L589 350L428 349.5Z" stroke="#161A1E"/>
<path d="M590 349.5L647.467 280L810 280.342L751 350L590 349.5Z" stroke="#161A1E"/>
<path d="M752 349.5L809.467 280L972 280.342L913 350L752 349.5Z" stroke="#161A1E"/>
<path d="M914 349.5L971.467 280L1134 280.342L1075 350L914 349.5Z" stroke="#161A1E"/>
<path d="M1076 349.5L1133.47 280L1296 280.342L1237 350L1076 349.5Z" stroke="#161A1E"/>
<path d="M1238 349.5L1295.47 280L1458 280.342L1399 350L1238 349.5Z" stroke="#161A1E"/>
<path d="M1400 349.5L1457.47 280L1620 280.342L1561 350L1400 349.5Z" stroke="#161A1E"/>
<path d="M-116 419.5L-58.5331 350L104 350.342L45 420L-116 419.5Z" stroke="#161A1E"/>
<path d="M46 419.5L103.467 350L266 350.342L207 420L46 419.5Z" stroke="#161A1E"/>
<path d="M208 419.5L265.467 350L428 350.342L369 420L208 419.5Z" stroke="#161A1E"/>
<path d="M370 419.5L427.467 350L590 350.342L531 420L370 419.5Z" stroke="#161A1E"/>
<path d="M532 419.5L589.467 350L752 350.342L693 420L532 419.5Z" stroke="#161A1E"/>
<path d="M694 419.5L751.467 350L914 350.342L855 420L694 419.5Z" stroke="#161A1E"/>
<path d="M856 419.5L913.467 350L1076 350.342L1017 420L856 419.5Z" stroke="#161A1E"/>
<path d="M1018 419.5L1075.47 350L1238 350.342L1179 420L1018 419.5Z" stroke="#161A1E"/>
<path d="M1180 419.5L1237.47 350L1400 350.342L1341 420L1180 419.5Z" stroke="#161A1E"/>
<path d="M1342 419.5L1399.47 350L1562 350.342L1503 420L1342 419.5Z" stroke="#161A1E"/>
<path d="M-174 489.5L-116.533 420L46 420.342L-13 490L-174 489.5Z" stroke="#161A1E"/>
<path d="M-12 489.5L45.4669 420L208 420.342L149 490L-12 489.5Z" stroke="#161A1E"/>
<path d="M150 489.5L207.467 420L370 420.342L311 490L150 489.5Z" stroke="#161A1E"/>
<path d="M312 489.5L369.467 420L532 420.342L473 490L312 489.5Z" stroke="#161A1E"/>
<path d="M474 489.5L531.467 420L694 420.342L635 490L474 489.5Z" stroke="#161A1E"/>
<path d="M636 489.5L693.467 420L856 420.342L797 490L636 489.5Z" stroke="#161A1E"/>
<path d="M798 489.5L855.467 420L1018 420.342L959 490L798 489.5Z" stroke="#161A1E"/>
<path d="M960 489.5L1017.47 420L1180 420.342L1121 490L960 489.5Z" stroke="#161A1E"/>
<path d="M1122 489.5L1179.47 420L1342 420.342L1283 490L1122 489.5Z" stroke="#161A1E"/>
<path d="M1284 489.5L1341.47 420L1504 420.342L1445 490L1284 489.5Z" stroke="#161A1E"/>
<path d="M-70 559.5L-12.5331 490L150 490.342L91 560L-70 559.5Z" stroke="#161A1E"/>
<path d="M92 559.5L149.467 490L312 490.342L253 560L92 559.5Z" stroke="#161A1E"/>
<path d="M254 559.5L311.467 490L474 490.342L415 560L254 559.5Z" stroke="#161A1E"/>
<path d="M416 559.5L473.467 490L636 490.342L577 560L416 559.5Z" stroke="#161A1E"/>
<path d="M578 559.5L635.467 490L798 490.342L739 560L578 559.5Z" stroke="#161A1E"/>
<path d="M740 559.5L797.467 490L960 490.342L901 560L740 559.5Z" stroke="#161A1E"/>
<path d="M902 559.5L959.467 490L1122 490.342L1063 560L902 559.5Z" stroke="#161A1E"/>
<path d="M1064 559.5L1121.47 490L1284 490.342L1225 560L1064 559.5Z" stroke="#161A1E"/>
<path d="M1226 559.5L1283.47 490L1446 490.342L1387 560L1226 559.5Z" stroke="#161A1E"/>
<path d="M1388 559.5L1445.47 490L1608 490.342L1549 560L1388 559.5Z" stroke="#161A1E"/>
<path d="M-128 629.5L-70.5331 560L92 560.342L33 630L-128 629.5Z" stroke="#161A1E"/>
<path d="M34 629.5L91.4669 560L254 560.342L195 630L34 629.5Z" stroke="#161A1E"/>
<path d="M196 629.5L253.467 560L416 560.342L357 630L196 629.5Z" stroke="#161A1E"/>
<path d="M358 629.5L415.467 560L578 560.342L519 630L358 629.5Z" stroke="#161A1E"/>
<path d="M520 629.5L577.467 560L740 560.342L681 630L520 629.5Z" stroke="#161A1E"/>
<path d="M682 629.5L739.467 560L902 560.342L843 630L682 629.5Z" stroke="#161A1E"/>
<path d="M844 629.5L901.467 560L1064 560.342L1005 630L844 629.5Z" stroke="#161A1E"/>
<path d="M1006 629.5L1063.47 560L1226 560.342L1167 630L1006 629.5Z" stroke="#161A1E"/>
<path d="M1168 629.5L1225.47 560L1388 560.342L1329 630L1168 629.5Z" stroke="#161A1E"/>
<path d="M1330 629.5L1387.47 560L1550 560.342L1491 630L1330 629.5Z" stroke="#161A1E"/>
<path d="M-186 699.5L-128.533 630L34 630.342L-25 700L-186 699.5Z" stroke="#161A1E"/>
<path d="M-24 699.5L33.4669 630L196 630.342L137 700L-24 699.5Z" stroke="#161A1E"/>
<path d="M138 699.5L195.467 630L358 630.342L299 700L138 699.5Z" stroke="#161A1E"/>
<path d="M300 699.5L357.467 630L520 630.342L461 700L300 699.5Z" stroke="#161A1E"/>
<path d="M462 699.5L519.467 630L682 630.342L623 700L462 699.5Z" stroke="#161A1E"/>
<path d="M624 699.5L681.467 630L844 630.342L785 700L624 699.5Z" stroke="#161A1E"/>
<path d="M786 699.5L843.467 630L1006 630.342L947 700L786 699.5Z" stroke="#161A1E"/>
<path d="M948 699.5L1005.47 630L1168 630.342L1109 700L948 699.5Z" stroke="#161A1E"/>
<path d="M1110 699.5L1167.47 630L1330 630.342L1271 700L1110 699.5Z" stroke="#161A1E"/>
<path d="M1272 699.5L1329.47 630L1492 630.342L1433 700L1272 699.5Z" stroke="#161A1E"/>
<path d="M-82 769.5L-24.5331 700L138 700.342L79 770L-82 769.5Z" stroke="#161A1E"/>
<path d="M80 769.5L137.467 700L300 700.342L241 770L80 769.5Z" stroke="#161A1E"/>
<path d="M242 769.5L299.467 700L462 700.342L403 770L242 769.5Z" stroke="#161A1E"/>
<path d="M404 769.5L461.467 700L624 700.342L565 770L404 769.5Z" stroke="#161A1E"/>
<path d="M566 769.5L623.467 700L786 700.342L727 770L566 769.5Z" stroke="#161A1E"/>
<path d="M728 769.5L785.467 700L948 700.342L889 770L728 769.5Z" stroke="#161A1E"/>
<path d="M890 769.5L947.467 700L1110 700.342L1051 770L890 769.5Z" stroke="#161A1E"/>
<path d="M1052 769.5L1109.47 700L1272 700.342L1213 770L1052 769.5Z" stroke="#161A1E"/>
<path d="M1214 769.5L1271.47 700L1434 700.342L1375 770L1214 769.5Z" stroke="#161A1E"/>
<path d="M1376 769.5L1433.47 700L1596 700.342L1537 770L1376 769.5Z" stroke="#161A1E"/>
<path d="M-140 839.5L-82.5331 770L80 770.342L21 840L-140 839.5Z" stroke="#161A1E"/>
<path d="M22 839.5L79.4669 770L242 770.342L183 840L22 839.5Z" stroke="#161A1E"/>
<path d="M184 839.5L241.467 770L404 770.342L345 840L184 839.5Z" stroke="#161A1E"/>
<path d="M346 839.5L403.467 770L566 770.342L507 840L346 839.5Z" stroke="#161A1E"/>
<path d="M508 839.5L565.467 770L728 770.342L669 840L508 839.5Z" stroke="#161A1E"/>
<path d="M670 839.5L727.467 770L890 770.342L831 840L670 839.5Z" stroke="#161A1E"/>
<path d="M832 839.5L889.467 770L1052 770.342L993 840L832 839.5Z" stroke="#161A1E"/>
<path d="M994 839.5L1051.47 770L1214 770.342L1155 840L994 839.5Z" stroke="#161A1E"/>
<path d="M1156 839.5L1213.47 770L1376 770.342L1317 840L1156 839.5Z" stroke="#161A1E"/>
<path d="M1318 839.5L1375.47 770L1538 770.342L1479 840L1318 839.5Z" stroke="#161A1E"/>
<path d="M-198 909.5L-140.533 840L22 840.342L-37 910L-198 909.5Z" stroke="#161A1E"/>
<path d="M-36 909.5L21.4669 840L184 840.342L125 910L-36 909.5Z" stroke="#161A1E"/>
<path d="M126 909.5L183.467 840L346 840.342L287 910L126 909.5Z" stroke="#161A1E"/>
<path d="M288 909.5L345.467 840L508 840.342L449 910L288 909.5Z" stroke="#161A1E"/>
<path d="M450 909.5L507.467 840L670 840.342L611 910L450 909.5Z" stroke="#161A1E"/>
<path d="M612 909.5L669.467 840L832 840.342L773 910L612 909.5Z" stroke="#161A1E"/>
<path d="M774 909.5L831.467 840L994 840.342L935 910L774 909.5Z" stroke="#161A1E"/>
<path d="M936 909.5L993.47 840L1156 840.342L1097 910L936 909.5Z" stroke="#161A1E"/>
<path d="M1098 909.5L1155.47 840L1318 840.342L1259 910L1098 909.5Z" stroke="#161A1E"/>
<path d="M1260 909.5L1317.47 840L1480 840.342L1421 910L1260 909.5Z" stroke="#161A1E"/>
<path d="M1422 909.5L1479.47 840L1642 840.342L1583 910L1422 909.5Z" stroke="#161A1E"/>
<path d="M-94 979.5L-36.5331 910L126 910.342L67 980L-94 979.5Z" stroke="#161A1E"/>
<path d="M68 979.5L125.467 910L288 910.342L229 980L68 979.5Z" stroke="#161A1E"/>
<path d="M230 979.5L287.467 910L450 910.342L391 980L230 979.5Z" stroke="#161A1E"/>
<path d="M392 979.5L449.467 910L612 910.342L553 980L392 979.5Z" stroke="#161A1E"/>
<path d="M554 979.5L611.467 910L774 910.342L715 980L554 979.5Z" stroke="#161A1E"/>
<path d="M716 979.5L773.467 910L936 910.342L877 980L716 979.5Z" stroke="#161A1E"/>
<path d="M878 979.5L935.467 910L1098 910.342L1039 980L878 979.5Z" stroke="#161A1E"/>
<path d="M1040 979.5L1097.47 910L1260 910.342L1201 980L1040 979.5Z" stroke="#161A1E"/>
<path d="M1202 979.5L1259.47 910L1422 910.342L1363 980L1202 979.5Z" stroke="#161A1E"/>
<path d="M1364 979.5L1421.47 910L1584 910.342L1525 980L1364 979.5Z" stroke="#161A1E"/>
</g>
<defs>
<clipPath id="clip0_3968_18045">
<rect width="1458" height="980"/>
</clipPath>
</defs>
</svg>
